<svg xmlns="http://www.w3.org/2000/svg" viewBox="0 0 24 24" fill="currentColor"><path d="M24 4.557c-.883.392-1.832.656-2.828.775 1.017-.609 1.798-1.574 2.165-2.724-.951.564-2.005.974-3.127 1.195-.897-.957-2.178-1.555-3.594-1.555-2.719 0-4.924 2.206-4.924 4.924 0 .386.044.763.127 1.124-4.09-.205-7.719-2.165-10.148-5.144-.424.729-.666 1.577-.666 2.476 0 1.708.87 3.216 2.188 4.099-.807-.026-1.566-.247-2.228-.616v.062c0 2.385 1.697 4.374 3.946 4.827-.413.112-.849.171-1.296.171-.317 0-.626-.031-.928-.088.627 1.956 2.444 3.377 4.6 3.417-1.68 1.316-3.809 2.101-6.102 2.101-.396 0-.787-.023-1.175-.069 2.179 1.397 4.768 2.213 7.557 2.213 9.054 0 14.009-7.496 14.009-13.986 0-.213-.005-.425-.014-.636.962-.695 1.797-1.562 2.457-2.549z"/></svg>
